<svg xmlns="http://www.w3.org/2000/svg" viewBox="0 0 1708.34 352.6"><defs><style>.cls-1{fill:#0c3;}</style></defs><g id="Layer_2" data-name="Layer 2"><g id="Layer_1-2" data-name="Layer 1"><path class="cls-1" d="M88.76,71.26c-26.07,0-46.87,9.9-59.42,26.39h-.65V89.08c0-9.9-5.27-15.85-14.52-15.85C5.27,73.23,0,79.18,0,89.08V280.76c0,9.58,5.27,15.5,14.17,15.5,9.25,0,14.52-5.92,14.52-15.5V210.48h.65c12.55,16.84,33.35,26.39,59.42,26.39,46.83,0,78.5-33,78.5-82.8C167.26,104.58,135.59,71.26,88.76,71.26Zm-5.3,138.89c-32,0-54.77-23.09-54.77-56.08S51.46,98,83.46,98c32.34,0,54.43,22.77,54.43,56.09S115.8,210.15,83.46,210.15Z"/><path class="cls-1" d="M215.43,0c-8.9,0-14.2,5.92-14.2,15.5V219.4c0,9.57,5.3,15.5,14.2,15.5,9.24,0,14.52-5.93,14.52-15.5V15.5C230,5.92,224.67,0,215.43,0Z"/><path class="cls-1" d="M416.68,73.23c-8.9,0-14.17,6-14.17,15.85v8.57h-.67c-12.53-16.49-33.32-26.39-59.72-26.39-46.86,0-78.2,33.32-78.2,82.81,0,49.81,31.34,82.8,78.2,82.8,26.4,0,47.19-9.55,59.72-26.39h.67v8.92c0,9.57,5.27,15.5,14.17,15.5S431.2,229,431.2,219.4V89.08C431.2,79.18,425.61,73.23,416.68,73.23ZM347.4,210.15c-32,0-54.12-22.77-54.12-56.08S315.4,98,347.4,98c32.67,0,55.11,23.09,55.11,56.09S380.07,210.15,347.4,210.15Z"/><path class="cls-1" d="M606.07,73.23c-8.58,0-14.2,6-14.2,15.85v61.36c0,34.64-19.12,55.76-49.49,55.76-29.69,0-45.54-17.17-45.54-49.84V89.08c0-9.9-5.27-15.85-14.17-15.85s-14.52,6-14.52,15.85v70.26c0,47.84,23.74,73.58,67.31,73.58,24.74,0,43.89-9.24,55.76-25.39h.65v13.85c0,31-19.12,50.13-51.14,50.13-19.47,0-33.32-5.92-44.22-16.82-3.29-3.3-5.92-4.95-10.54-4.95-8.58,0-14.2,5.95-14.2,13.88a16.15,16.15,0,0,0,3,9.22c13.2,17.17,37.3,25.42,66.66,25.42,49.14,0,79.19-29.37,79.19-78.21v-131C620.59,79.18,615.29,73.23,606.07,73.23Z"/><path class="cls-1" d="M807.32,73.23c-8.92,0-14.2,6-14.2,15.85V97h-.65c-12.87-16.5-34-25.72-60.38-25.72-46.52,0-77.54,32.32-77.54,80.83s31,80.83,77.54,80.83c26.72,0,47.84-9.24,60.38-25.74h.65v30.45a5.84,5.84,0,0,1-2.91,5.05l-54.15,31.26a14.69,14.69,0,0,0,14.7,25.44l42.36-24.47,22.56-13a12.35,12.35,0,0,0,6.16-10.68V89.08C821.84,79.18,816.22,73.23,807.32,73.23Zm-70,133c-32,0-53.44-21.44-53.44-54.11S705.37,98,737.36,98c33.67,0,55.76,21.44,55.76,54.11S771,206.2,737.36,206.2Z"/><path class="cls-1" d="M945.86,72.23c-25.07,0-42.89,9.9-53.76,28.4h-.67V89.08c0-9.9-5.28-15.85-14.5-15.85-8.92,0-14.2,6-14.2,15.85V219.4c0,9.57,5.28,15.5,14.2,15.5,9.22,0,14.5-5.93,14.5-15.5V164c0-42.89,19.79-63,54.43-63,8.6,0,14.53-5.27,14.53-14.19C960.39,77.53,954.46,72.23,945.86,72.23Z"/><path class="cls-1" d="M1050.14,71.26c-49.84,0-83.81,33.64-83.81,82.81s34,82.8,83.81,82.8,84.13-33.64,84.13-82.8S1100,71.26,1050.14,71.26Zm0,138.89c-32.34,0-54.44-22.77-54.44-56.08S1017.8,98,1050.14,98c32.67,0,54.76,22.77,54.76,56.09S1082.81,210.15,1050.14,210.15Z"/><path class="cls-1" d="M1302.18,73.23c-8.57,0-14.17,6-14.17,15.85v65.31c0,34.32-19.14,55.76-49.49,55.76-29.69,0-45.54-17.47-45.54-49.49V89.08c0-9.9-5.27-15.85-14.19-15.85s-14.5,6-14.5,15.85v74.23c0,47.84,23.75,73.56,67.29,73.56,24.77,0,43.89-9.22,55.76-25.39h.67v8.57c0,8.92,5.93,14.85,14.17,14.85,8.6,0,14.53-5.93,14.53-14.85v-131C1316.71,79.18,1311.43,73.23,1302.18,73.23Z"/><path class="cls-1" d="M1443.08,71.26c-25.1,0-44.22,9.22-56.09,25.39h-.67V88.73c0-9.55-5.28-15.5-14.53-15.5-8.89,0-14.17,6-14.17,15.5V219.4c0,9.57,5.28,15.5,14.17,15.5,9.25,0,14.53-5.93,14.53-15.5V153.74c0-34.64,19.14-55.76,49.81-55.76,30.37,0,46.21,17.14,46.21,49.81V219.4c0,9.57,5.28,15.5,14.18,15.5S1511,229,1511,219.4V144.82C1511,97,1487.27,71.26,1443.08,71.26Z"/><path class="cls-1" d="M1693.82,0c-8.92,0-14.19,5.92-14.19,15.82V97.65H1679c-12.55-16.49-33.35-26.39-59.74-26.39-46.84,0-78.18,33.32-78.18,82.81,0,49.81,31.34,82.8,78.18,82.8,26.39,0,47.19-9.55,59.74-26.39h.65v8.92c0,9.57,5.27,15.5,14.19,15.5s14.52-5.93,14.52-15.5V15.82C1708.34,5.92,1702.72,0,1693.82,0Zm-69.28,210.15c-32,0-54.11-22.77-54.11-56.08S1592.52,98,1624.54,98c32.64,0,55.09,23.09,55.09,56.09S1657.18,210.15,1624.54,210.15Z"/><rect class="cls-1" x="761.14" y="260.81" width="29.36" height="104.24" rx="14.68" transform="translate(658.92 -515.42) rotate(60)"/><circle class="cls-1" cx="808.18" cy="338" r="14.6"/></g></g></svg>