<svg width="191" height="50" viewBox="0 0 191 50" fill="none" xmlns="http://www.w3.org/2000/svg">
<path d="M47.8292 23.4643H3.91641V27.2326H47.8292V23.4643Z" fill="#00CC33"/>
<path d="M15.0636 46.1904V49.6796H0.71875L15.5365 27H21.5717L25.8729 33.6063L30.1291 27H36.2542L50.6666 49.6796H36.6147V46.1904H44.5415L33.1016 28.4887L25.8729 39.7936L18.5766 28.4422L7.11426 46.1904H15.0636Z" fill="#00CC33"/>
<path d="M0.71875 0.784668L15.5365 23.4643H21.5717L25.8729 16.858L30.1291 23.4643H36.2542L50.6666 0.784704L0.71875 0.784668ZM7.11436 4.27383H44.5415L33.1016 21.9754L25.8729 10.6707L18.5766 22.0221L7.11436 4.27383Z" fill="#00CC33"/>
<path d="M72.2818 29.96C70.5618 29.96 69.1897 30.6233 68.3619 31.7112H68.319V31.1424C68.319 30.479 67.971 30.091 67.3608 30.091C66.7507 30.091 66.4258 30.4857 66.4258 31.1424V43.8601C66.4258 44.4952 66.7737 44.8882 67.3608 44.8882C67.9479 44.8882 68.319 44.4952 68.319 43.8601V39.1969H68.3619C69.1864 40.3146 70.5618 40.9481 72.2818 40.9481C75.3723 40.9481 77.4618 38.7591 77.4618 35.454C77.4618 32.149 75.3723 29.96 72.2818 29.96ZM71.9322 39.1753C69.8213 39.1753 68.319 37.643 68.319 35.454C68.319 33.265 69.8213 31.7327 71.9322 31.7327C74.0431 31.7327 75.524 33.2435 75.524 35.454C75.524 37.6646 74.0662 39.1753 71.9322 39.1753Z" fill="white"/>
<path d="M80.6398 25.2319C80.0527 25.2319 79.7031 25.625 79.7031 26.2601V39.7888C79.7031 40.4239 80.0527 40.8169 80.6398 40.8169C81.2269 40.8169 81.598 40.4239 81.598 39.7888V26.2601C81.598 25.625 81.25 25.2319 80.6398 25.2319Z" fill="white"/>
<path d="M93.9174 30.091C93.3303 30.091 92.9823 30.4857 92.9823 31.1424V31.7112H92.9378C92.1132 30.6167 90.7395 29.96 88.998 29.96C85.9059 29.96 83.8379 32.1705 83.8379 35.454C83.8379 38.7375 85.9059 40.9481 88.998 40.9481C90.7395 40.9481 92.1116 40.3146 92.9378 39.1969H92.9757V39.7889C92.9757 40.424 93.3237 40.817 93.9108 40.817C94.4979 40.817 94.8689 40.424 94.8689 39.7889V31.1424C94.8755 30.4857 94.5061 30.091 93.9174 30.091ZM89.3476 39.1753C87.2367 39.1753 85.7773 37.6646 85.7773 35.454C85.7773 33.2435 87.2351 31.7327 89.3476 31.7327C91.503 31.7327 92.9757 33.265 92.9757 35.454C92.9757 37.643 91.5014 39.1753 89.3476 39.1753Z" fill="white"/>
<path d="M106.414 30.0913C105.849 30.0913 105.478 30.486 105.478 31.1427V35.2139C105.478 37.5123 104.216 38.9136 102.212 38.9136C100.253 38.9136 99.2077 37.7744 99.2077 35.6069V31.1427C99.2077 30.4794 98.8597 30.0913 98.2726 30.0913C97.6855 30.0913 97.3145 30.486 97.3145 31.1427V35.8043C97.3145 38.9783 98.8811 40.6864 101.756 40.6864C103.388 40.6864 104.651 40.0728 105.435 39.0015H105.478V39.9202C105.478 41.9782 104.216 43.2468 102.104 43.2468C100.819 43.2468 99.9052 42.8538 99.1862 42.1308C99.064 41.9863 98.9008 41.8828 98.7185 41.834C98.5362 41.7853 98.3434 41.7936 98.1659 41.858C97.9884 41.9223 97.8347 42.0396 97.7253 42.1942C97.6159 42.3487 97.556 42.5331 97.5536 42.7228C97.5551 42.9422 97.6236 43.1558 97.7498 43.3347C98.6206 44.474 100.21 45.0213 102.148 45.0213C105.39 45.0213 107.372 43.0727 107.372 39.8323V31.1427C107.372 30.486 107.023 30.0913 106.414 30.0913Z" fill="white"/>
<path d="M119.692 30.091C119.104 30.091 118.756 30.4857 118.756 31.1424V31.6664H118.713C117.864 30.5719 116.47 29.96 114.729 29.96C111.659 29.96 109.616 32.1042 109.616 35.323C109.616 38.5418 111.663 40.686 114.729 40.686C116.491 40.686 117.885 40.0725 118.713 38.978H118.756V40.9978C118.756 41.0653 118.738 41.1316 118.704 41.1899C118.67 41.2481 118.621 41.2963 118.563 41.3295L114.991 43.4074C114.775 43.5401 114.62 43.7524 114.557 43.9988C114.495 44.2453 114.531 44.5065 114.657 44.7267C114.784 44.9469 114.991 45.1087 115.234 45.1776C115.478 45.2465 115.738 45.217 115.96 45.0955L118.756 43.4737L120.24 42.608C120.364 42.5364 120.466 42.4332 120.538 42.3089C120.609 42.1846 120.647 42.0435 120.647 41.8999V31.1424C120.651 30.4857 120.279 30.091 119.692 30.091ZM115.075 38.9133C112.964 38.9133 111.549 37.4904 111.549 35.323C111.549 33.1556 112.966 31.7327 115.075 31.7327C117.296 31.7327 118.754 33.1556 118.754 35.323C118.754 37.4904 117.298 38.9133 115.075 38.9133Z" fill="white"/>
<path d="M128.833 30.0251C127.184 30.0251 126.003 30.6884 125.285 31.909H125.241V31.1428C125.241 30.4795 124.893 30.0915 124.284 30.0915C123.676 30.0915 123.348 30.4861 123.348 31.1428V39.7894C123.348 40.4245 123.696 40.8175 124.284 40.8175C124.873 40.8175 125.241 40.4245 125.241 39.7894V36.1112C125.241 33.2655 126.547 31.9305 128.833 31.9305C129.4 31.9305 129.791 31.5806 129.791 30.9886C129.801 30.8595 129.783 30.7299 129.738 30.6084C129.693 30.487 129.623 30.3768 129.532 30.2852C129.441 30.1937 129.331 30.1231 129.211 30.0782C129.09 30.0333 128.961 30.0152 128.833 30.0251Z" fill="white"/>
<path d="M135.713 29.96C132.425 29.96 130.184 32.1921 130.184 35.454C130.184 38.7159 132.425 40.9481 135.713 40.9481C139.001 40.9481 141.264 38.7159 141.264 35.454C141.264 32.1921 139 29.96 135.713 29.96ZM135.713 39.1753C133.579 39.1753 132.121 37.6646 132.121 35.454C132.121 33.2435 133.579 31.7327 135.713 31.7327C137.847 31.7327 139.326 33.2435 139.326 35.454C139.326 37.6646 137.869 39.1753 135.713 39.1753Z" fill="white"/>
<path d="M152.346 30.0913C151.781 30.0913 151.411 30.486 151.411 31.1427V35.4759C151.411 37.7528 150.148 39.1756 148.146 39.1756C146.187 39.1756 145.141 38.0148 145.141 35.8921V31.1427C145.141 30.4794 144.793 30.0913 144.205 30.0913C143.616 30.0913 143.248 30.486 143.248 31.1427V36.0679C143.248 39.242 144.815 40.9484 147.687 40.9484C149.322 40.9484 150.583 40.3365 151.367 39.2635H151.411V39.8257C151.411 40.4177 151.802 40.8108 152.346 40.8108C152.475 40.8164 152.604 40.7946 152.724 40.7468C152.844 40.699 152.953 40.6262 153.044 40.5333C153.134 40.4403 153.204 40.3292 153.248 40.2073C153.293 40.0854 153.311 39.9553 153.303 39.8257V31.1427C153.303 30.486 152.955 30.0913 152.346 30.0913Z" fill="white"/>
<path d="M161.639 29.96C159.99 29.96 158.722 30.5719 157.939 31.6448H157.894V31.1191C157.894 30.4857 157.546 30.091 156.936 30.091C156.326 30.091 156.001 30.4857 156.001 31.1191V39.7889C156.001 40.424 156.349 40.817 156.936 40.817C157.523 40.817 157.894 40.424 157.894 39.7889V35.4325C157.894 33.134 159.157 31.7327 161.181 31.7327C163.204 31.7327 164.23 32.8703 164.23 35.0378V39.7889C164.23 40.424 164.578 40.817 165.165 40.817C165.752 40.817 166.123 40.424 166.123 39.7889V34.8404C166.123 31.6664 164.548 29.96 161.639 29.96Z" fill="white"/>
<path d="M178.184 25.2319C177.595 25.2319 177.247 25.625 177.247 26.2817V31.711H177.204C176.38 30.6165 175.004 29.9598 173.263 29.9598C170.173 29.9598 168.104 32.1704 168.104 35.4539C168.104 38.7374 170.173 40.9479 173.263 40.9479C175.004 40.9479 176.377 40.3144 177.204 39.1967H177.247V39.7888C177.247 40.4239 177.595 40.8169 178.184 40.8169C178.773 40.8169 179.142 40.4239 179.142 39.7888V26.2817C179.142 25.625 178.771 25.2319 178.184 25.2319ZM173.619 39.1752C171.507 39.1752 170.049 37.6644 170.049 35.4539C170.049 33.2433 171.5 31.7326 173.619 31.7326C175.773 31.7326 177.247 33.2649 177.247 35.4539C177.247 37.6429 175.763 39.1752 173.619 39.1752Z" fill="white"/>
<path d="M186.041 34.469C183.865 34.4474 183.238 34.1373 183.238 33.3081C183.238 32.3247 184.326 31.6896 186.023 31.6896C187.038 31.6814 188.024 32.0298 188.81 32.6746C188.969 32.8066 189.17 32.8761 189.376 32.8703C189.899 32.8703 190.268 32.4989 190.268 31.9085C190.269 31.7662 190.238 31.6257 190.177 31.4969C190.117 31.3681 190.029 31.2544 189.92 31.1639C188.919 30.3347 187.679 29.96 185.893 29.96C183.106 29.96 181.343 31.2734 181.343 33.3081C181.343 35.3429 182.563 36.2649 185.872 36.2931C188.157 36.3147 188.84 36.6861 188.84 37.6065C188.84 38.6347 187.796 39.2483 186.037 39.2483C184.688 39.2483 183.563 38.8984 182.794 38.2417C182.601 38.07 182.355 37.9694 182.097 37.9564C181.977 37.9514 181.857 37.9716 181.746 38.0158C181.634 38.0601 181.533 38.1273 181.449 38.2133C181.365 38.2992 181.3 38.4019 181.258 38.5148C181.216 38.6277 181.198 38.7482 181.205 38.8685C181.205 38.995 181.23 39.1203 181.279 39.2369C181.328 39.3536 181.399 39.4595 181.488 39.5484C182.511 40.5103 183.947 40.9481 186.147 40.9481C189.02 40.9481 190.718 39.7225 190.718 37.643C190.722 35.4756 189.501 34.5187 186.041 34.469Z" fill="white"/>
<path d="M72.2818 29.96C70.5618 29.96 69.1897 30.6233 68.3619 31.7112H68.319V31.1424C68.319 30.479 67.971 30.091 67.3608 30.091C66.7507 30.091 66.4258 30.4857 66.4258 31.1424V43.8601C66.4258 44.4952 66.7737 44.8882 67.3608 44.8882C67.9479 44.8882 68.319 44.4952 68.319 43.8601V39.1969H68.3619C69.1864 40.3146 70.5618 40.9481 72.2818 40.9481C75.3723 40.9481 77.4618 38.7591 77.4618 35.454C77.4618 32.149 75.3723 29.96 72.2818 29.96ZM71.9322 39.1753C69.8213 39.1753 68.319 37.643 68.319 35.454C68.319 33.265 69.8213 31.7327 71.9322 31.7327C74.0431 31.7327 75.524 33.2435 75.524 35.454C75.524 37.6646 74.0662 39.1753 71.9322 39.1753Z" fill="white"/>
<path d="M80.6398 25.2319C80.0527 25.2319 79.7031 25.625 79.7031 26.2601V39.7888C79.7031 40.4239 80.0527 40.8169 80.6398 40.8169C81.2269 40.8169 81.598 40.4239 81.598 39.7888V26.2601C81.598 25.625 81.25 25.2319 80.6398 25.2319Z" fill="white"/>
<path d="M93.9174 30.091C93.3303 30.091 92.9823 30.4857 92.9823 31.1424V31.7112H92.9378C92.1132 30.6167 90.7395 29.96 88.998 29.96C85.9059 29.96 83.8379 32.1705 83.8379 35.454C83.8379 38.7375 85.9059 40.9481 88.998 40.9481C90.7395 40.9481 92.1116 40.3146 92.9378 39.1969H92.9757V39.7889C92.9757 40.424 93.3237 40.817 93.9108 40.817C94.4979 40.817 94.8689 40.424 94.8689 39.7889V31.1424C94.8755 30.4857 94.5061 30.091 93.9174 30.091ZM89.3476 39.1753C87.2367 39.1753 85.7773 37.6646 85.7773 35.454C85.7773 33.2435 87.2351 31.7327 89.3476 31.7327C91.503 31.7327 92.9757 33.265 92.9757 35.454C92.9757 37.643 91.5014 39.1753 89.3476 39.1753Z" fill="white"/>
<path d="M106.414 30.0913C105.849 30.0913 105.478 30.486 105.478 31.1427V35.2139C105.478 37.5123 104.216 38.9136 102.212 38.9136C100.253 38.9136 99.2077 37.7744 99.2077 35.6069V31.1427C99.2077 30.4794 98.8597 30.0913 98.2726 30.0913C97.6855 30.0913 97.3145 30.486 97.3145 31.1427V35.8043C97.3145 38.9783 98.8811 40.6864 101.756 40.6864C103.388 40.6864 104.651 40.0728 105.435 39.0015H105.478V39.9202C105.478 41.9782 104.216 43.2468 102.104 43.2468C100.819 43.2468 99.9052 42.8538 99.1862 42.1308C99.064 41.9863 98.9008 41.8828 98.7185 41.834C98.5362 41.7853 98.3434 41.7936 98.1659 41.858C97.9884 41.9223 97.8347 42.0396 97.7253 42.1942C97.6159 42.3487 97.556 42.5331 97.5536 42.7228C97.5551 42.9422 97.6236 43.1558 97.7498 43.3347C98.6206 44.474 100.21 45.0213 102.148 45.0213C105.39 45.0213 107.372 43.0727 107.372 39.8323V31.1427C107.372 30.486 107.023 30.0913 106.414 30.0913Z" fill="white"/>
<path d="M119.692 30.091C119.104 30.091 118.756 30.4857 118.756 31.1424V31.6664H118.713C117.864 30.5719 116.47 29.96 114.729 29.96C111.659 29.96 109.616 32.1042 109.616 35.323C109.616 38.5418 111.663 40.686 114.729 40.686C116.491 40.686 117.885 40.0725 118.713 38.978H118.756V40.9978C118.756 41.0653 118.738 41.1316 118.704 41.1899C118.67 41.2481 118.621 41.2963 118.563 41.3295L114.991 43.4074C114.775 43.5401 114.62 43.7524 114.557 43.9988C114.495 44.2453 114.531 44.5065 114.657 44.7267C114.784 44.9469 114.991 45.1087 115.234 45.1776C115.478 45.2465 115.738 45.217 115.96 45.0955L118.756 43.4737L120.24 42.608C120.364 42.5364 120.466 42.4332 120.538 42.3089C120.609 42.1846 120.647 42.0435 120.647 41.8999V31.1424C120.651 30.4857 120.279 30.091 119.692 30.091ZM115.075 38.9133C112.964 38.9133 111.549 37.4904 111.549 35.323C111.549 33.1556 112.966 31.7327 115.075 31.7327C117.296 31.7327 118.754 33.1556 118.754 35.323C118.754 37.4904 117.298 38.9133 115.075 38.9133Z" fill="white"/>
<path d="M128.833 30.0251C127.184 30.0251 126.003 30.6884 125.285 31.909H125.241V31.1428C125.241 30.4795 124.893 30.0915 124.284 30.0915C123.676 30.0915 123.348 30.4861 123.348 31.1428V39.7894C123.348 40.4245 123.696 40.8175 124.284 40.8175C124.873 40.8175 125.241 40.4245 125.241 39.7894V36.1112C125.241 33.2655 126.547 31.9305 128.833 31.9305C129.4 31.9305 129.791 31.5806 129.791 30.9886C129.801 30.8595 129.783 30.7299 129.738 30.6084C129.693 30.487 129.623 30.3768 129.532 30.2852C129.441 30.1937 129.331 30.1231 129.211 30.0782C129.09 30.0333 128.961 30.0152 128.833 30.0251Z" fill="white"/>
<path d="M135.713 29.96C132.425 29.96 130.184 32.1921 130.184 35.454C130.184 38.7159 132.425 40.9481 135.713 40.9481C139.001 40.9481 141.264 38.7159 141.264 35.454C141.264 32.1921 139 29.96 135.713 29.96ZM135.713 39.1753C133.579 39.1753 132.121 37.6646 132.121 35.454C132.121 33.2435 133.579 31.7327 135.713 31.7327C137.847 31.7327 139.326 33.2435 139.326 35.454C139.326 37.6646 137.869 39.1753 135.713 39.1753Z" fill="white"/>
<path d="M152.346 30.0913C151.781 30.0913 151.411 30.486 151.411 31.1427V35.4759C151.411 37.7528 150.148 39.1756 148.146 39.1756C146.187 39.1756 145.141 38.0148 145.141 35.8921V31.1427C145.141 30.4794 144.793 30.0913 144.205 30.0913C143.616 30.0913 143.248 30.486 143.248 31.1427V36.0679C143.248 39.242 144.815 40.9484 147.687 40.9484C149.322 40.9484 150.583 40.3365 151.367 39.2635H151.411V39.8257C151.411 40.4177 151.802 40.8108 152.346 40.8108C152.475 40.8164 152.604 40.7946 152.724 40.7468C152.844 40.699 152.953 40.6262 153.044 40.5333C153.134 40.4403 153.204 40.3292 153.248 40.2073C153.293 40.0854 153.311 39.9553 153.303 39.8257V31.1427C153.303 30.486 152.955 30.0913 152.346 30.0913Z" fill="white"/>
<path d="M161.639 29.96C159.99 29.96 158.722 30.5719 157.939 31.6448H157.894V31.1191C157.894 30.4857 157.546 30.091 156.936 30.091C156.326 30.091 156.001 30.4857 156.001 31.1191V39.7889C156.001 40.424 156.349 40.817 156.936 40.817C157.523 40.817 157.894 40.424 157.894 39.7889V35.4325C157.894 33.134 159.157 31.7327 161.181 31.7327C163.204 31.7327 164.23 32.8703 164.23 35.0378V39.7889C164.23 40.424 164.578 40.817 165.165 40.817C165.752 40.817 166.123 40.424 166.123 39.7889V34.8404C166.123 31.6664 164.548 29.96 161.639 29.96Z" fill="white"/>
<path d="M178.184 25.2319C177.595 25.2319 177.247 25.625 177.247 26.2817V31.711H177.204C176.38 30.6165 175.004 29.9598 173.263 29.9598C170.173 29.9598 168.104 32.1704 168.104 35.4539C168.104 38.7374 170.173 40.9479 173.263 40.9479C175.004 40.9479 176.377 40.3144 177.204 39.1967H177.247V39.7888C177.247 40.4239 177.595 40.8169 178.184 40.8169C178.773 40.8169 179.142 40.4239 179.142 39.7888V26.2817C179.142 25.625 178.771 25.2319 178.184 25.2319ZM173.619 39.1752C171.507 39.1752 170.049 37.6644 170.049 35.4539C170.049 33.2433 171.5 31.7326 173.619 31.7326C175.773 31.7326 177.247 33.2649 177.247 35.4539C177.247 37.6429 175.763 39.1752 173.619 39.1752Z" fill="white"/>
<path d="M186.041 34.469C183.865 34.4474 183.238 34.1373 183.238 33.3081C183.238 32.3247 184.326 31.6896 186.023 31.6896C187.038 31.6814 188.024 32.0298 188.81 32.6746C188.969 32.8066 189.17 32.8761 189.376 32.8703C189.899 32.8703 190.268 32.4989 190.268 31.9085C190.269 31.7662 190.238 31.6257 190.177 31.4969C190.117 31.3681 190.029 31.2544 189.92 31.1639C188.919 30.3347 187.679 29.96 185.893 29.96C183.106 29.96 181.343 31.2734 181.343 33.3081C181.343 35.3429 182.563 36.2649 185.872 36.2931C188.157 36.3147 188.84 36.6861 188.84 37.6065C188.84 38.6347 187.796 39.2483 186.037 39.2483C184.688 39.2483 183.563 38.8984 182.794 38.2417C182.601 38.07 182.355 37.9694 182.097 37.9564C181.977 37.9514 181.857 37.9716 181.746 38.0158C181.634 38.0601 181.533 38.1273 181.449 38.2133C181.365 38.2992 181.3 38.4019 181.258 38.5148C181.216 38.6277 181.198 38.7482 181.205 38.8685C181.205 38.995 181.23 39.1203 181.279 39.2369C181.328 39.3536 181.399 39.4595 181.488 39.5484C182.511 40.5103 183.947 40.9481 186.147 40.9481C189.02 40.9481 190.718 39.7225 190.718 37.643C190.722 35.4756 189.501 34.5187 186.041 34.469Z" fill="white"/>
<path d="M120.593 44.5993L120.592 44.5979C120.325 44.1323 119.733 43.9728 119.27 44.2416L114.991 46.7258C114.528 46.9946 114.37 47.5899 114.637 48.0555L114.638 48.057C114.905 48.5226 115.497 48.6821 115.96 48.4133L120.239 45.9291C120.702 45.6603 120.861 45.0649 120.593 44.5993Z" fill="white"/>
<path d="M119.75 49.2895C120.282 49.2895 120.713 48.8559 120.713 48.321C120.713 47.7861 120.282 47.3525 119.75 47.3525C119.218 47.3525 118.787 47.7861 118.787 48.321C118.787 48.8559 119.218 49.2895 119.75 49.2895Z" fill="white"/>
<path d="M75.3486 21.4798H79.3334L72.6696 13.5552L79.1533 5.76571H75.3486L69.6303 12.8123V5.76571H66.4785V21.4798H69.6303V14.4782L75.3486 21.4798Z" fill="white"/>
<path d="M82.082 21.4798H85.2338V4.82016H82.082V21.4798Z" fill="white"/>
<path d="M89.0232 21.4798H92.175V9.00758H89.0232V21.4798ZM90.6216 7.52173C91.7248 7.52173 92.5577 6.71126 92.5577 5.67566C92.5577 4.64006 91.7248 3.82959 90.6216 3.82959C89.496 3.82959 88.6855 4.64006 88.6855 5.67566C88.6855 6.71126 89.496 7.52173 90.6216 7.52173Z" fill="white"/>
<path d="M113.412 21.4798H116.564V14.1631C116.564 10.7186 114.448 8.82748 111.453 8.82748C109.63 8.82748 107.986 9.79554 107.176 11.2139C106.32 9.66046 104.722 8.82748 102.786 8.82748C101.232 8.82748 99.9042 9.48036 99.1162 10.516V9.00758H95.9644V21.4798H99.1162V14.5908C99.1162 12.6097 100.219 11.5741 101.93 11.5741C103.596 11.5741 104.699 12.6097 104.699 14.5908V21.4798H107.851V14.5908C107.851 12.6097 108.954 11.5741 110.643 11.5741C112.309 11.5741 113.412 12.6097 113.412 14.5908V21.4798Z" fill="white"/>
<path d="M119.42 15.1987C119.42 19.0934 121.941 21.6824 125.093 21.6824C127.074 21.6824 128.492 20.7369 129.235 19.6562V21.4798H132.41V9.00758H129.235V10.7861C128.492 9.75051 127.119 8.80497 125.115 8.80497C121.941 8.80497 119.42 11.3039 119.42 15.1987ZM129.235 15.2437C129.235 17.6076 127.659 18.9133 125.926 18.9133C124.237 18.9133 122.639 17.5625 122.639 15.1987C122.639 12.8348 124.237 11.5741 125.926 11.5741C127.659 11.5741 129.235 12.8798 129.235 15.2437Z" fill="white"/>
</svg>
