<svg id="Layer_1" data-name="Layer 1" xmlns="http://www.w3.org/2000/svg" xmlns:xlink="http://www.w3.org/1999/xlink" viewBox="0 0 1000 1000"><defs><linearGradient id="linear-gradient" x1="189.65" y1="446.71" x2="249.75" y2="446.71" gradientUnits="userSpaceOnUse"><stop offset="0" stop-color="#fce978"/><stop offset="1" stop-color="#91ed6d"/></linearGradient><linearGradient id="linear-gradient-2" x1="189.65" y1="466.54" x2="261.5" y2="466.54" gradientUnits="userSpaceOnUse"><stop offset="0" stop-color="#3ffab7"/><stop offset="1" stop-color="#01b88b"/></linearGradient></defs><path d="M723.66,279.45l-16.28-7.23a3.19,3.19,0,0,1-1.89-2.92v-4.47a23.69,23.69,0,0,0,9-18.58V240a5.82,5.82,0,0,0,3-5.08v-.61a23.79,23.79,0,0,0-23.76-23.76h-6A23.79,23.79,0,0,0,664,234.27v5.54a5.87,5.87,0,0,0,2.23,4.71,5.17,5.17,0,0,0,.76.49v1.24a23.72,23.72,0,0,0,9,18.58v4.47a3.19,3.19,0,0,1-1.89,2.92l-16.28,7.23A14.79,14.79,0,0,0,649,293v37.13a2.8,2.8,0,0,0,5.6,0V293c0-.33,0-.65,0-1l7.51,7.5a6.18,6.18,0,0,1,1.81,4.37v26.23a2.8,2.8,0,1,0,5.6,0V303.86a11.74,11.74,0,0,0-3.45-8.33l-8.94-8.94a9,9,0,0,1,2.87-2l16-7.11,11.87,11.87v40.76a2.8,2.8,0,1,0,5.6,0V289.33l11.87-11.87,16,7.11a9.15,9.15,0,0,1,2.87,2l-8.94,8.94a11.71,11.71,0,0,0-3.46,8.33v26.23a2.81,2.81,0,0,0,5.61,0V303.86a6.13,6.13,0,0,1,1.81-4.37l7.5-7.5c0,.32.05.64.05,1v37.13a2.81,2.81,0,0,0,5.61,0V293A14.8,14.8,0,0,0,723.66,279.45Zm-32.95,4.76L680.3,273.79a8.78,8.78,0,0,0,1.24-4.49v-1.14a23.68,23.68,0,0,0,18.35,0v1.14a8.68,8.68,0,0,0,1.24,4.49Zm0-19.8a18.19,18.19,0,0,1-18.16-18.16V245a16.58,16.58,0,0,0,5.09-3.3,2.8,2.8,0,0,0-3.8-4.12,10,10,0,0,1-4.16,2.48l-.07,0a.61.61,0,0,1-.05-.26v-5.54a18.18,18.18,0,0,1,18.16-18.16h6a18.18,18.18,0,0,1,18.15,18.16v.61a.19.19,0,0,1-.12.19c-16.78,3.31-25.19-2.94-28-5.77a2.8,2.8,0,0,0-4,4c8.7,8.7,21.39,8.85,29.12,7.93v5.06A18.19,18.19,0,0,1,690.71,264.41Z" style="fill:#518e55"/><path d="M645.6,264.21v-6a20.75,20.75,0,0,0-9.52-17.44,11.59,11.59,0,0,0,.54-3.51,11.79,11.79,0,1,0-23,3.51,20.77,20.77,0,0,0-9.52,17.44v6a20.76,20.76,0,0,0,9,17.09v6.16a3.16,3.16,0,0,1-1.76,2.85l-9.69,4.84a11.72,11.72,0,0,0-6.51,10.55v24.39a2.8,2.8,0,0,0,5.6,0V306.91l4.57,4.56a6.18,6.18,0,0,1,1.81,4.37v14.25a2.8,2.8,0,1,0,5.6,0V315.84a11.71,11.71,0,0,0-3.45-8.33l-6.35-6.35-.1-.09a6.16,6.16,0,0,1,1.34-.9l9.69-4.85a9,9,0,0,0,1.39-.87L622,301.3v28.79a2.8,2.8,0,1,0,5.6,0V301.3l6.85-6.85a8.56,8.56,0,0,0,1.39.87l2.67,1.34a2.8,2.8,0,1,0,2.51-5l-2.68-1.34a3.17,3.17,0,0,1-1.76-2.85V281.3A20.76,20.76,0,0,0,645.6,264.21Zm-20.76-33.13a6.19,6.19,0,0,1,6.18,6.19,5.77,5.77,0,0,1-.1,1.1,20.77,20.77,0,0,0-12.16,0,6.72,6.72,0,0,1-.1-1.1A6.19,6.19,0,0,1,624.84,231.08Zm0,12A15.18,15.18,0,0,1,640,258.23v1c-11.66,3.57-18.61-5.3-18.91-5.69a2.77,2.77,0,0,0-2-1.11,2.8,2.8,0,0,0-2.18.81,18.4,18.4,0,0,1-7.19,4.59A15.18,15.18,0,0,1,624.84,243.06Zm0,53.12-6.48-6.47a8.85,8.85,0,0,0,.3-2.25V284A20.79,20.79,0,0,0,631,284v3.42a8.84,8.84,0,0,0,.29,2.25Zm0-16.8a15.19,15.19,0,0,1-15.17-15.17v-.58a22.4,22.4,0,0,0,9-4.48,25.29,25.29,0,0,0,5.19,3.78,22.24,22.24,0,0,0,10.71,2.76,23.52,23.52,0,0,0,5.4-.64A15.19,15.19,0,0,1,624.84,279.38Z" style="fill:#518e55"/><path d="M779.82,289.17l-15.68-7.84a3.17,3.17,0,0,1-1.76-2.85v-4a17.74,17.74,0,0,0,6-13.29V258h.19a2.8,2.8,0,0,0,2.8-2.8v-6a17.79,17.79,0,0,0-17.77-17.77h-6a17.79,17.79,0,0,0-17.77,17.77v6a2.8,2.8,0,0,0,2.8,2.8h.19v3.19a17.74,17.74,0,0,0,6,13.29v4a3.16,3.16,0,0,1-1.76,2.85,2.8,2.8,0,1,0,2.5,5,8.56,8.56,0,0,0,1.39-.87l6.85,6.85v37.77a2.81,2.81,0,0,0,5.61,0V292.32l6.85-6.85a8.92,8.92,0,0,0,1.38.87l15.18,7.58-4.61,4.61a11.71,11.71,0,0,0-3.45,8.33v23.23a2.81,2.81,0,0,0,5.61,0V306.86a6.13,6.13,0,0,1,1.81-4.37l4.35-4.36a5.91,5.91,0,0,1,.21,1.58v30.38a2.8,2.8,0,0,0,5.6,0V299.71A11.71,11.71,0,0,0,779.82,289.17Zm-44.39-37.32v-2.61h0a12.18,12.18,0,0,1,12.17-12.17h6a12.18,12.18,0,0,1,12.17,12.17v3.11c-12.18-.65-19.53-5.39-19.6-5.44a2.82,2.82,0,0,0-1.55-.47,2.79,2.79,0,0,0-2,.82A18.4,18.4,0,0,1,735.43,251.85Zm15.16,35.35-6.47-6.47a8.9,8.9,0,0,0,.29-2.25v-.6a17.79,17.79,0,0,0,12.37,0v.6a8.9,8.9,0,0,0,.29,2.25Zm0-13.81a12.18,12.18,0,0,1-12.16-12.17V256.7h0a23.71,23.71,0,0,0,6.57-4,49.71,49.71,0,0,0,17.76,5.05v3.48A12.18,12.18,0,0,1,750.59,273.39Z" style="fill:#518e55"/><circle cx="215.59" cy="518.05" r="4.76" style="fill:#518e55"/><circle cx="373.01" cy="516.19" r="4.76" style="fill:#518e55"/><circle cx="377.77" cy="684.98" r="4.76" style="fill:#518e55"/><circle cx="690.92" cy="495.51" r="4.76" style="fill:#518e55"/><circle cx="559.24" cy="290.57" r="4.76" style="fill:#518e55"/><path d="M556,290.77H304.8a12,12,0,0,0-12,12.05v39H228.33a12,12,0,0,0-12,12v30.75" style="fill:none;stroke:#518e55;stroke-miterlimit:10;stroke-width:2px"/><text transform="translate(424.24 724.67)" style="font-size:23.87912940979004px;fill:#fff;font-family:LEMONMILK-Regular, LEMON MILK">s<tspan x="14.66" y="0" style="letter-spacing:-0.09765981037164222em">t</tspan><tspan x="26.44" y="0">ake </tspan><tspan x="0" y="28.65">KLIMA</tspan></text><text transform="translate(711.26 477.17)" style="font-size:23.87912940979004px;fill:#fff;font-family:LEMONMILK-Regular, LEMON MILK">re<tspan x="30.2" y="0" style="letter-spacing:-0.014640792342147367em">b</tspan><tspan x="45.13" y="0" style="letter-spacing:-0.024414952592910554em">a</tspan><tspan x="62.95" y="0">se / 8 hours</tspan></text><text transform="translate(711.26 445.91)" style="font-size:23.87912940979004px;fill:#fff;font-family:LEMONMILK-Regular, LEMON MILK">receive <tspan x="108.01" y="0" style="font-size:14.924460411071777px">s</tspan><tspan x="117.17" y="0">klima</tspan></text><text transform="translate(331.68 280.03)" style="font-size:23.87912940979004px;fill:#fff;font-family:LEMONMILK-Regular, LEMON MILK"><tspan style="letter-spacing:-0.03905574493505792em">s</tspan><tspan x="13.72" y="0" style="letter-spacing:-0.13428223926100805em">w</tspan><tspan x="33.11" y="0">ap </tspan><tspan x="73.75" y="0" style="letter-spacing:-0.03905574493505792em">t</tspan><tspan x="86.94" y="0">o KLIMA</tspan></text><path d="M320.53,694.4h0l-2.27-3.94h35l-4-5.87h-34l-.2.35-.19-.35h.39l1.82-3.15,13.18-22.8,10.24-17.72L349.13,626l5.37-9.3h-5.38l-16.86,0h-27.5l-6.42,0H253.21l-16.8,0H231l5.34,9.21,8.41,14.52L255,658.23l13.43,23.17,1.84,3.18H236.36l-4,5.87h34.94l-2.34,4h0l-20,34.64L231,753.27h29.52l-4-6h-15l9-15.66,8.87-15.41L274,691l-.28-.5h.57l-.29.5,18.8,32.46,0,0,18.83-32.56-.26-.44h.51l-.25.44,14.4,25h0l9,15.66,9.05,15.7h-15l-4,6H354.5l-13.93-24.12Zm-27.74,17,0,0-12-20.87h24.08Zm15.32-26.56-.12-.22H277.63l-.12.22-.14-.22h.26l12.08-21,3.06-5.32,0,0,3.1,5.36,12.1,21h.24Zm3.43-6-9.22-16-9.53-16.52,0,0-9.53,16.48L274,678.8l-3.31-5.75-12-20.77h0l-.15-.28-9.23-16-7.53-13.08-.05-.07h102l-.06.1L336,636.42l-9.06,15.73-.17.29-11.92,20.69Z" style="fill:#518e55;stroke:#000;stroke-miterlimit:10;stroke-width:0.5px"/><path d="M705,580.88h0l-1.1-1.91h16.94l-1.92-2.84H702.42l-.09.16-.1-.16h.19l.89-1.53,6.38-11.05,5-8.59,4.19-7.23,2.6-4.5H661.6l2.58,4.46,4.08,7,5,8.59,6.51,11.22.89,1.55H664.18L662.26,579h16.93l-1.13,2h0l-9.7,16.78-6.75,11.7h14.3L674,606.49H666.7l4.37-7.59,4.3-7.47,7-12.23-.13-.24h.27l-.14.24,9.11,15.73v0l9.13-15.78-.13-.21h.25l-.12.21,7,12.12h0l4.37,7.59,4.39,7.61h-7.26l-1.92,2.92h14.22l-6.75-11.7Zm-13.44,8.21v0L685.7,579h11.67ZM699,576.22l-.05-.1H684.19l-.06.1-.07-.1h.13L690,566l1.48-2.58v0L693,566l5.86,10.17H699Zm1.67-2.89-4.47-7.73-4.62-8v0l-4.62,8-4.46,7.7-1.6-2.78L675,560.46h0l-.08-.14-4.47-7.77-3.65-6.34,0,0h49.44l0,.05-3.78,6.55-4.39,7.62-.08.14-5.78,10Z" style="fill:#518e55"/><g id="BCT"><path d="M253.54,429.94A24.36,24.36,0,0,1,249.75,443,25.39,25.39,0,0,0,236,439H189.65V411.81a3.86,3.86,0,0,1,3.86-3.86h46.36A24.5,24.5,0,0,1,253.54,429.94Z" style="fill:#fff"/><path d="M249.75,443A24.44,24.44,0,0,1,229,454.44H189.65V439H236A25.39,25.39,0,0,1,249.75,443Z" style="fill:url(#linear-gradient)"/><path d="M261.5,464.52A25.54,25.54,0,0,1,236,490.05H193.56a3.91,3.91,0,0,1-3.91-3.9V454.44H229A24.44,24.44,0,0,0,249.75,443,25.47,25.47,0,0,1,261.5,464.52Z" style="fill:url(#linear-gradient-2)"/></g><text transform="translate(112.6 428.19)" style="font-size:23.87912940979004px;fill:#fff;font-family:LEMONMILK-Regular, LEMON MILK"><tspan style="letter-spacing:-0.014640792342147367em">B</tspan><tspan x="14.94" y="0" style="letter-spacing:-0.024414952592910554em">a</tspan><tspan x="32.75" y="0">se</tspan><tspan x="-45.6" y="28.66">Carbon</tspan><tspan x="-24.47" y="57.31" style="letter-spacing:-0.03905574493505792em">T</tspan><tspan x="-11.29" y="57.31">onne</tspan></text><text transform="translate(436.89 456.48)" style="font-size:23.87912940979004px;fill:#fff;font-family:LEMONMILK-Regular, LEMON MILK">Usdc</text><path d="M292.76,341.78h70a12,12,0,0,1,12,12v30.75" style="fill:none;stroke:#518e55;stroke-miterlimit:10;stroke-width:2px"/><line x1="292.76" y1="556.48" x2="292.76" y2="595.7" style="stroke:#518e55;stroke-miterlimit:10;stroke-width:2px"/><path d="M215.59,518.05v25.79a12.64,12.64,0,0,0,12.64,12.64H360.37A12.64,12.64,0,0,0,373,543.84V516.19" style="fill:none;stroke:#518e55;stroke-miterlimit:10;stroke-width:2px"/><path d="M217.46,394.46l7.83-13.55a2.11,2.11,0,0,0-1.83-3.16H207.81a2.1,2.1,0,0,0-1.82,3.16l7.82,13.55A2.1,2.1,0,0,0,217.46,394.46Z" style="fill:#518e55"/><path d="M376.52,392.32l7.82-13.56a2.1,2.1,0,0,0-1.82-3.16H366.86a2.11,2.11,0,0,0-1.82,3.16l7.82,13.56A2.12,2.12,0,0,0,376.52,392.32Z" style="fill:#518e55"/><path d="M689.44,351.29,683,362.52a1.75,1.75,0,0,0,1.51,2.62h13a1.75,1.75,0,0,0,1.52-2.62l-6.48-11.23A1.75,1.75,0,0,0,689.44,351.29Z" style="fill:#518e55"/><path d="M764.54,351.29l-6.48,11.23a1.75,1.75,0,0,0,1.51,2.62h13a1.75,1.75,0,0,0,1.52-2.62l-6.48-11.23A1.75,1.75,0,0,0,764.54,351.29Z" style="fill:#518e55"/><path d="M614,351.29l-6.48,11.23a1.75,1.75,0,0,0,1.51,2.62h13a1.75,1.75,0,0,0,1.51-2.62l-6.48-11.23A1.75,1.75,0,0,0,614,351.29Z" style="fill:#518e55"/><path d="M294.65,605.11l7.82-13.56a2.11,2.11,0,0,0-1.82-3.16H285a2.1,2.1,0,0,0-1.82,3.16L291,605.11A2.12,2.12,0,0,0,294.65,605.11Z" style="fill:#518e55"/><path d="M553.7,682.49l-13.56-7.82a2.1,2.1,0,0,0-3.16,1.82v15.66a2.1,2.1,0,0,0,3.16,1.82l13.56-7.82A2.12,2.12,0,0,0,553.7,682.49Z" style="fill:#518e55"/><circle cx="374.69" cy="447.95" r="47.55" style="fill:#518e55"/><path d="M362.57,415.89c-4.51,2.24-12.73,5.3-18.58,16.17-5.63,8.94-5,23.59-1.58,31s11.42,16.54,20.16,19.14c3.62,1.3,3.71-.56,3.8-1.21s.56-3.53-1.95-4.83-7.75-2-15.73-14.44c-7.64-15.34.89-29.44,6.63-34.05,4.51-3.62,3.68-3.24,8.55-5.66a4.38,4.38,0,0,0,2.6-4C366.47,415.71,365.54,414.42,362.57,415.89Z"/><path d="M387,415.89c4.51,2.24,12.73,5.3,18.58,16.17,5.63,8.94,5,23.59,1.58,31S395.71,479.62,387,482.22c-3.62,1.3-3.71-.56-3.8-1.21s-.56-3.53,1.95-4.83,7.75-2,15.73-14.44c7.64-15.34-.89-29.44-6.63-34.05-4.51-3.62-3.68-3.24-8.55-5.66a4.38,4.38,0,0,1-2.6-4C383.07,415.71,384,414.42,387,415.89Z"/><path d="M369.64,438.12a7.07,7.07,0,0,1,7.45-1.16c2.38,1,3.2,3.13,3.61,3.59s.54,1.38,3.18.9,2.48-.16,2.48-2.05-1.84-4.08-2.82-5a19.51,19.51,0,0,0-5.54-2.89c-.06-1.75.12-4.15,0-4.38s-.06-1.49-3.06-1.46-3.2.76-3.28,1.23a45.57,45.57,0,0,0-.26,4.55c-.92.24-6.53,1.44-8.17,5.54s-1.35,7.19.67,10.17,8.09,3.94,8.81,4.2,4.48,0,7.89,2.66c1.89,3.51-1.51,6.51-1.82,6.61a12.55,12.55,0,0,1-7.4.36c-2.79-.95-3.59-4.64-3.87-4.92a4.22,4.22,0,0,0-3.1-1c-1.94,0-3,.79-3.12,1.28,0,0,.23,5.37,4.3,7.81s5.79,2.43,5.79,2.43a43.78,43.78,0,0,0,.18,4.38c.07.28-.14,1.41,3.13,1.44s3.09-1.08,3.14-1.49.26-4,.39-4.2,5.25-1.67,7.27-4.48,3.07-7.17,1.54-10.53-5.43-5.43-11.45-6.2-6.74-2.76-6.74-2.94S368.38,439.27,369.64,438.12Z"/><path d="M623.38,530.45l22.11-19.66h86.36l75.37,65.68v14.28h7.86a3.27,3.27,0,0,1,3.28,3.27v13.77a3.27,3.27,0,0,1-3.28,3.27h-3.27a3.93,3.93,0,0,0-3.94,3.93V628.1a3.61,3.61,0,0,1-3.6,3.61H790.83v89.52H802a4.59,4.59,0,0,1,4.58,4.59v9.77a4.91,4.91,0,0,1-4.91,4.91H578.16a4.58,4.58,0,0,1-4.59-4.58V725.76a4.58,4.58,0,0,1,4.59-4.59h14.09V634H577a3.44,3.44,0,0,1-3.44-3.44V615.81a3.44,3.44,0,0,0-3.44-3.44h-1.35a3.44,3.44,0,0,1-3.44-3.44V595.85a3.78,3.78,0,0,1,3.79-3.79h1.49V576.47l22.94-20.13" style="fill:none;stroke:#518e55;stroke-linecap:round;stroke-miterlimit:10;stroke-width:5px"/><line x1="592.25" y1="721.17" x2="790.83" y2="721.17" style="fill:none;stroke:#518e55;stroke-linecap:round;stroke-miterlimit:10;stroke-width:5px"/><polyline points="592.25 634 615.84 634 615.84 721.17" style="fill:none;stroke:#518e55;stroke-linecap:round;stroke-miterlimit:10;stroke-width:5px"/><path d="M615.84,634h12.62a3.44,3.44,0,0,0,3.44-3.44V616.14a3.44,3.44,0,0,0-3.44-3.44H568.78" style="fill:none;stroke:#518e55;stroke-linecap:round;stroke-miterlimit:10;stroke-width:5px"/><path d="M813.22,611.06H753.64a3.77,3.77,0,0,0-3.77,3.77v13.11a3.77,3.77,0,0,0,3.77,3.77h37.19" style="fill:none;stroke:#518e55;stroke-linecap:round;stroke-miterlimit:10;stroke-width:5px"/><path d="M657.46,721.17V651.53a5.08,5.08,0,0,1,5.08-5.08H721.2a5.09,5.09,0,0,1,5.08,5.08v69.64" style="fill:none;stroke:#518e55;stroke-linecap:round;stroke-miterlimit:10;stroke-width:5px"/><line x1="691.87" y1="646.45" x2="691.87" y2="721.17" style="fill:none;stroke:#518e55;stroke-linecap:round;stroke-miterlimit:10;stroke-width:5px"/><circle cx="691.43" cy="576.47" r="49.95" style="fill:none;stroke:#518e55;stroke-linecap:round;stroke-miterlimit:10;stroke-width:5px"/><line x1="753.64" y1="611.06" x2="727.46" y2="611.06" style="fill:none;stroke:#518e55;stroke-linecap:round;stroke-miterlimit:10;stroke-width:5px"/><line x1="628.46" y1="612.7" x2="657.06" y2="612.7" style="fill:none;stroke:#518e55;stroke-linecap:round;stroke-miterlimit:10;stroke-width:5px"/><path d="M570.62,592.06c2.62-.33,73.34,0,73.34,0" style="fill:none;stroke:#518e55;stroke-linecap:round;stroke-miterlimit:10;stroke-width:5px"/><path d="M807.22,590.75c-1.64-.33-68.33,0-68.33,0" style="fill:none;stroke:#518e55;stroke-linecap:round;stroke-miterlimit:10;stroke-width:5px"/><rect x="559.34" y="740.86" width="261.6" height="19.32" rx="9.61" style="fill:none;stroke:#518e55;stroke-linecap:round;stroke-miterlimit:10;stroke-width:5px"/><line x1="766.62" y1="631.71" x2="766.62" y2="721.17" style="fill:none;stroke:#518e55;stroke-linecap:round;stroke-miterlimit:10;stroke-width:5px"/><line x1="690.92" y1="495.51" x2="690.92" y2="363.13" style="fill:none;stroke:#518e55;stroke-miterlimit:10;stroke-width:2px"/><line x1="377.77" y1="684.98" x2="543.6" y2="684.98" style="fill:none;stroke:#518e55;stroke-miterlimit:10;stroke-width:2px"/><path d="M615.49,362.86v27.29a5.78,5.78,0,0,0,5.78,5.78h57.85a11.74,11.74,0,0,1,11.74,11.73v.28" style="fill:none;stroke:#518e55;stroke-miterlimit:10;stroke-width:2px"/><path d="M766.27,363v27.28a5.78,5.78,0,0,1-5.78,5.78H702.64a11.74,11.74,0,0,0-11.74,11.74V408" style="fill:none;stroke:#518e55;stroke-miterlimit:10;stroke-width:2px"/><circle cx="607.52" cy="544.09" r="2.5" style="fill:#518e55"/></svg>